<svg width="32" height="32" viewBox="0 0 32 32" fill="none" xmlns="http://www.w3.org/2000/svg">
<path d="M16.0001 11.8344C13.7064 11.8344 11.8345 13.7063 11.8345 16C11.8345 18.2937 13.7064 20.1656 16.0001 20.1656C18.2939 20.1656 20.1658 18.2937 20.1658 16C20.1658 13.7063 18.2939 11.8344 16.0001 11.8344ZM28.4939 16C28.4939 14.275 28.5095 12.5656 28.4127 10.8438C28.3158 8.84375 27.8595 7.06875 26.397 5.60625C24.9314 4.14062 23.1595 3.6875 21.1595 3.59063C19.4345 3.49375 17.7251 3.50938 16.0033 3.50938C14.2783 3.50938 12.5689 3.49375 10.847 3.59063C8.84702 3.6875 7.07202 4.14375 5.60952 5.60625C4.1439 7.07188 3.69077 8.84375 3.5939 10.8438C3.49702 12.5688 3.51265 14.2781 3.51265 16C3.51265 17.7219 3.49702 19.4344 3.5939 21.1562C3.69077 23.1562 4.14702 24.9312 5.60952 26.3937C7.07515 27.8594 8.84702 28.3125 10.847 28.4094C12.572 28.5062 14.2814 28.4906 16.0033 28.4906C17.7283 28.4906 19.4376 28.5062 21.1595 28.4094C23.1595 28.3125 24.9345 27.8562 26.397 26.3937C27.8627 24.9281 28.3158 23.1562 28.4127 21.1562C28.5127 19.4344 28.4939 17.725 28.4939 16ZM16.0001 22.4094C12.4533 22.4094 9.59077 19.5469 9.59077 16C9.59077 12.4531 12.4533 9.59062 16.0001 9.59062C19.547 9.59062 22.4095 12.4531 22.4095 16C22.4095 19.5469 19.547 22.4094 16.0001 22.4094ZM22.672 10.825C21.8439 10.825 21.1751 10.1562 21.1751 9.32812C21.1751 8.5 21.8439 7.83125 22.672 7.83125C23.5002 7.83125 24.1689 8.5 24.1689 9.32812C24.1691 9.52477 24.1306 9.71953 24.0555 9.90125C23.9803 10.083 23.8701 10.2481 23.731 10.3871C23.592 10.5262 23.4269 10.6364 23.2451 10.7116C23.0634 10.7867 22.8687 10.8252 22.672 10.825Z" fill="#838397"/>
<path d="M31 16C31 24.2843 24.2843 31 16 31C7.71573 31 1 24.2843 1 16C1 7.71573 7.71573 1 16 1C24.2843 1 31 7.71573 31 16ZM4.63126 16C4.63126 22.2788 9.72122 27.3687 16 27.3687C22.2788 27.3687 27.3687 22.2788 27.3687 16C27.3687 9.72122 22.2788 4.63126 16 4.63126C9.72122 4.63126 4.63126 9.72122 4.63126 16Z" fill="#838397"/>
</svg>
