<svg width="32" height="32" viewBox="0 0 32 32" fill="none" xmlns="http://www.w3.org/2000/svg">
<path d="M16 2C8.26875 2 2 8.26875 2 16C2 23.7313 8.26875 30 16 30C23.7313 30 30 23.7313 30 16C30 8.26875 23.7313 2 16 2ZM22.7281 12.5531C22.7375 12.7 22.7375 12.8531 22.7375 13.0031C22.7375 17.5906 19.2437 22.875 12.8594 22.875C10.8906 22.875 9.06562 22.3031 7.52812 21.3188C7.80937 21.35 8.07813 21.3625 8.36563 21.3625C9.99063 21.3625 11.4844 20.8125 12.675 19.8813C11.15 19.85 9.86875 18.85 9.43125 17.475C9.96562 17.5531 10.4469 17.5531 10.9969 17.4125C10.2116 17.253 9.50586 16.8265 8.99943 16.2056C8.49299 15.5846 8.21715 14.8075 8.21875 14.0063V13.9625C8.67812 14.2219 9.21875 14.3812 9.78438 14.4031C9.30888 14.0862 8.91893 13.6569 8.6491 13.1532C8.37926 12.6495 8.23789 12.087 8.2375 11.5156C8.2375 10.8687 8.40625 10.2781 8.70938 9.76562C9.58095 10.8386 10.6685 11.7161 11.9015 12.3411C13.1344 12.9662 14.485 13.3249 15.8656 13.3938C15.375 11.0344 17.1375 9.125 19.2563 9.125C20.2563 9.125 21.1562 9.54375 21.7906 10.2188C22.575 10.0719 23.325 9.77812 23.9937 9.38437C23.7344 10.1875 23.1906 10.8656 22.4688 11.2937C23.1688 11.2188 23.8438 11.025 24.4688 10.7531C23.9969 11.4469 23.4062 12.0625 22.7281 12.5531Z" fill="#838397"/>
<path d="M31 16C31 24.2843 24.2843 31 16 31C7.71573 31 1 24.2843 1 16C1 7.71573 7.71573 1 16 1C24.2843 1 31 7.71573 31 16ZM4.63126 16C4.63126 22.2788 9.72122 27.3687 16 27.3687C22.2788 27.3687 27.3687 22.2788 27.3687 16C27.3687 9.72122 22.2788 4.63126 16 4.63126C9.72122 4.63126 4.63126 9.72122 4.63126 16Z" fill="#838397"/>
</svg>
