<svg width="34" height="35" viewBox="0 0 34 35" fill="none" xmlns="http://www.w3.org/2000/svg">
<path d="M16.9997 0.583328C6.17467 0.583328 0.333008 8.89129 0.333008 16.7083C0.333008 20.5228 2.01467 23.8374 5.33301 26.5768V34.625H10.333V29.25H13.6663V34.625H20.333V29.25H23.6663V34.625H28.6663V26.575C31.9847 23.8374 33.6663 20.521 33.6663 16.7083C33.6663 8.89129 27.8247 0.583328 16.9997 0.583328ZM10.333 20.2917C8.46467 20.2917 6.99967 18.3244 6.99967 15.8125C6.99967 13.3006 8.46467 11.3333 10.333 11.3333C12.2013 11.3333 13.6663 13.3006 13.6663 15.8125C13.6663 18.3244 12.2013 20.2917 10.333 20.2917ZM23.6663 20.2917C21.798 20.2917 20.333 18.3244 20.333 15.8125C20.333 13.3006 21.798 11.3333 23.6663 11.3333C25.5347 11.3333 26.9997 13.3006 26.9997 15.8125C26.9997 18.3244 25.5347 20.2917 23.6663 20.2917Z" fill="#F2F2F2"/>
</svg>
